HIERARCHY
ROOT Root
{
  OFFSET 0.0 0.0 0.0
  CHANNELS 6 Xposition Yposition Zposition Zrotation Yrotation Xrotation
  JOINT Hips
  {
    OFFSET 0.0 100.0 0.0
    CHANNELS 6 Xposition Yposition Zposition Zrotation Yrotation Xrotation
    JOINT Spine1
    {
      OFFSET 5.003913 -0.037094 -0.013727
      CHANNELS 3 Zrotation Yrotation Xrotation
      JOINT Spine2
      {
        OFFSET 7.125363 -1e-06 0.0
        CHANNELS 3 Zrotation Yrotation Xrotation
        JOINT Chest
        {
          OFFSET 7.594027 1e-06 0.0
          CHANNELS 3 Zrotation Yrotation Xrotation
          JOINT Neck1
          {
            OFFSET 26.313086 -0.460272 -0.181672
            CHANNELS 3 Zrotation Yrotation Xrotation
            JOINT Neck2
            {
              OFFSET 8.045911 0.0 0.0
              CHANNELS 3 Zrotation Yrotation Xrotation
              JOINT Head
              {
                OFFSET 6.432774 0.0 0.0
                CHANNELS 3 Zrotation Yrotation Xrotation
                JOINT HeadEnd
                {
                  OFFSET 16.169773 0.06451 0.00362
                  CHANNELS 3 Zrotation Yrotation Xrotation
                }
                JOINT Jaw
                {
                  OFFSET 0.108741 3.12938 0.002639
                  CHANNELS 3 Zrotation Yrotation Xrotation
                }
                JOINT LeftEye
                {
                  OFFSET 4.45173 8.166359 3.206392
                  CHANNELS 3 Zrotation Yrotation Xrotation
                }
                JOINT RightEye
                {
                  OFFSET 4.436895 8.135758 -3.222429
                  CHANNELS 3 Zrotation Yrotation Xrotation
                }
              }
            }
          }
          JOINT LeftShoulder
          {
            OFFSET 23.218927 5.195579 1.621656
            CHANNELS 3 Zrotation Yrotation Xrotation
            JOINT LeftArm
            {
              OFFSET 15.902118 2e-06 -2e-06
              CHANNELS 3 Zrotation Yrotation Xrotation
              JOINT LeftForeArm
              {
                OFFSET 28.739307 0.0 -1e-06
                CHANNELS 3 Zrotation Yrotation Xrotation
                JOINT LeftHand
                {
                  OFFSET 27.093981 -4e-06 0.0
                  CHANNELS 3 Zrotation Yrotation Xrotation
                  JOINT LeftHandThumb1
                  {
                    OFFSET 2.276781 3.380274 0.83384
                    CHANNELS 3 Zrotation Yrotation Xrotation
                    JOINT LeftHandThumb2
                    {
                      OFFSET 4.705309 -1e-06 -1e-06
                      CHANNELS 3 Zrotation Yrotation Xrotation
                      JOINT LeftHandThumb3
                      {
                        OFFSET 2.798515 0.0 3e-06
                        CHANNELS 3 Zrotation Yrotation Xrotation
                        JOINT LeftHandThumbEnd
                        {
                          OFFSET 3.180793 4e-06 -4e-06
                          CHANNELS 3 Zrotation Yrotation Xrotation
                        }
                      }
                    }
                  }
                  JOINT LeftHandIndex1
                  {
                    OFFSET 3.247786 2.352677 0.137192
                    CHANNELS 3 Zrotation Yrotation Xrotation
                    JOINT LeftHandIndex2
                    {
                      OFFSET 6.367095 1e-06 0.0
                      CHANNELS 3 Zrotation Yrotation Xrotation
                      JOINT LeftHandIndex3
                      {
                        OFFSET 3.662364 0.0 0.0
                        CHANNELS 3 Zrotation Yrotation Xrotation
                        JOINT LeftHandIndex4
                        {
                          OFFSET 2.329242 4e-06 -4e-06
                          CHANNELS 3 Zrotation Yrotation Xrotation
                          JOINT LeftHandIndexEnd
                          {
                            OFFSET 2.767823 1e-06 0.0
                            CHANNELS 3 Zrotation Yrotation Xrotation
                          }
                        }
                      }
                    }
                  }
                  JOINT LeftHandMiddle1
                  {
                    OFFSET 3.163612 0.945023 -0.406112
                    CHANNELS 3 Zrotation Yrotation Xrotation
                    JOINT LeftHandMiddle2
                    {
                      OFFSET 6.276789 3e-06 0.0
                      CHANNELS 3 Zrotation Yrotation Xrotation
                      JOINT LeftHandMiddle3
                      {
                        OFFSET 4.35652 -1e-06 4e-06
                        CHANNELS 3 Zrotation Yrotation Xrotation
                        JOINT LeftHandMiddle4
                        {
                          OFFSET 2.996877 0.0 8e-06
                          CHANNELS 3 Zrotation Yrotation Xrotation
                          JOINT LeftHandMiddleEnd
                          {
                            OFFSET 2.323256 3e-06 -4e-06
                            CHANNELS 3 Zrotation Yrotation Xrotation
                          }
                        }
                      }
                    }
                  }
                  JOINT LeftHandRing1
                  {
                    OFFSET 2.882606 -0.309162 0.107445
                    CHANNELS 3 Zrotation Yrotation Xrotation
                    JOINT LeftHandRing2
                    {
                      OFFSET 6.033198 0.0 4e-06
                      CHANNELS 3 Zrotation Yrotation Xrotation
                      JOINT LeftHandRing3
                      {
                        OFFSET 4.350578 3e-06 0.0
                        CHANNELS 3 Zrotation Yrotation Xrotation
                        JOINT LeftHandRing4
                        {
                          OFFSET 2.651321 2e-06 -7e-06
                          CHANNELS 3 Zrotation Yrotation Xrotation
                          JOINT LeftHandRingEnd
                          {
                            OFFSET 1.937663 1e-06 -4e-06
                            CHANNELS 3 Zrotation Yrotation Xrotation
                          }
                        }
                      }
                    }
                  }
                  JOINT LeftHandPinky1
                  {
                    OFFSET 2.865315 -1.525436 0.575687
                    CHANNELS 3 Zrotation Yrotation Xrotation
                    JOINT LeftHandPinky2
                    {
                      OFFSET 5.54936 1e-06 -8e-06
                      CHANNELS 3 Zrotation Yrotation Xrotation
                      JOINT LeftHandPinky3
                      {
                        OFFSET 3.070974 0.0 -4e-06
                        CHANNELS 3 Zrotation Yrotation Xrotation
                        JOINT LeftHandPinky4
                        {
                          OFFSET 1.549672 1e-06 0.0
                          CHANNELS 3 Zrotation Yrotation Xrotation
                          JOINT LeftHandPinkyEnd
                          {
                            OFFSET 1.952123 0.0 0.0
                            CHANNELS 3 Zrotation Yrotation Xrotation
                          }
                        }
                      }
                    }
                  }
                }
              }
            }
          }
          JOINT RightShoulder
          {
            OFFSET 23.161716 5.296122 -1.380114
            CHANNELS 3 Zrotation Yrotation Xrotation
            JOINT RightArm
            {
              OFFSET -16.027195 -2e-06 1.1e-05
              CHANNELS 3 Zrotation Yrotation Xrotation
              JOINT RightForeArm
              {
                OFFSET -28.736639 4e-06 2e-06
                CHANNELS 3 Zrotation Yrotation Xrotation
                JOINT RightHand
                {
                  OFFSET -27.133619 6e-06 0.0
                  CHANNELS 3 Zrotation Yrotation Xrotation
                  JOINT RightHandThumb1
                  {
                    OFFSET -2.274328 -3.351035 -0.83067
                    CHANNELS 3 Zrotation Yrotation Xrotation
                    JOINT RightHandThumb2
                    {
                      OFFSET -4.703594 -3e-06 2e-06
                      CHANNELS 3 Zrotation Yrotation Xrotation
                      JOINT RightHandThumb3
                      {
                        OFFSET -2.794935 -4e-06 -3e-06
                        CHANNELS 3 Zrotation Yrotation Xrotation
                        JOINT RightHandThumbEnd
                        {
                          OFFSET -3.183852 4e-06 1e-06
                          CHANNELS 3 Zrotation Yrotation Xrotation
                        }
                      }
                    }
                  }
                  JOINT RightHandIndex1
                  {
                    OFFSET -3.253496 -2.33755 -0.127667
                    CHANNELS 3 Zrotation Yrotation Xrotation
                    JOINT RightHandIndex2
                    {
                      OFFSET -6.344434 0.0 0.0
                      CHANNELS 3 Zrotation Yrotation Xrotation
                      JOINT RightHandIndex3
                      {
                        OFFSET -3.654871 0.0 -8e-06
                        CHANNELS 3 Zrotation Yrotation Xrotation
                        JOINT RightHandIndex4
                        {
                          OFFSET -2.327586 -1e-06 0.0
                          CHANNELS 3 Zrotation Yrotation Xrotation
                          JOINT RightHandIndexEnd
                          {
                            OFFSET -2.770001 3e-06 8e-06
                            CHANNELS 3 Zrotation Yrotation Xrotation
                          }
                        }
                      }
                    }
                  }
                  JOINT RightHandMiddle1
                  {
                    OFFSET -3.168223 -0.944764 0.411762
                    CHANNELS 3 Zrotation Yrotation Xrotation
                    JOINT RightHandMiddle2
                    {
                      OFFSET -6.266691 -1e-06 -4e-06
                      CHANNELS 3 Zrotation Yrotation Xrotation
                      JOINT RightHandMiddle3
                      {
                        OFFSET -4.348901 0.0 0.0
                        CHANNELS 3 Zrotation Yrotation Xrotation
                        JOINT RightHandMiddle4
                        {
                          OFFSET -3.00024 2e-06 -4e-06
                          CHANNELS 3 Zrotation Yrotation Xrotation
                          JOINT RightHandMiddleEnd
                          {
                            OFFSET -2.321477 -4e-06 -4e-06
                            CHANNELS 3 Zrotation Yrotation Xrotation
                          }
                        }
                      }
                    }
                  }
                  JOINT RightHandRing1
                  {
                    OFFSET -2.885654 0.293261 -0.119232
                    CHANNELS 3 Zrotation Yrotation Xrotation
                    JOINT RightHandRing2
                    {
                      OFFSET -6.032835 -1e-06 -4e-06
                      CHANNELS 3 Zrotation Yrotation Xrotation
                      JOINT RightHandRing3
                      {
                        OFFSET -4.33881 0.0 -4e-06
                        CHANNELS 3 Zrotation Yrotation Xrotation
                        JOINT RightHandRing4
                        {
                          OFFSET -2.654903 -4e-06 -4e-06
                          CHANNELS 3 Zrotation Yrotation Xrotation
                          JOINT RightHandRingEnd
                          {
                            OFFSET -1.935122 0.0 4e-06
                            CHANNELS 3 Zrotation Yrotation Xrotation
                          }
                        }
                      }
                    }
                  }
                  JOINT RightHandPinky1
                  {
                    OFFSET -2.866241 1.503904 -0.60527
                    CHANNELS 3 Zrotation Yrotation Xrotation
                    JOINT RightHandPinky2
                    {
                      OFFSET -5.553177 -2e-06 0.0
                      CHANNELS 3 Zrotation Yrotation Xrotation
                      JOINT RightHandPinky3
                      {
                        OFFSET -3.062664 -1e-06 -4e-06
                        CHANNELS 3 Zrotation Yrotation Xrotation
                        JOINT RightHandPinky4
                        {
                          OFFSET -1.546529 2e-06 4e-06
                          CHANNELS 3 Zrotation Yrotation Xrotation
                          JOINT RightHandPinkyEnd
                          {
                            OFFSET -1.952341 0.0 -4e-06
                            CHANNELS 3 Zrotation Yrotation Xrotation
                          }
                        }
                      }
                    }
                  }
                }
              }
            }
          }
        }
      }
    }
    JOINT LeftLeg
    {
      OFFSET -8.443107 2.567604 10.043214
      CHANNELS 3 Zrotation Yrotation Xrotation
      JOINT LeftShin
      {
        OFFSET 43.229198 1e-06 -1e-06
        CHANNELS 3 Zrotation Yrotation Xrotation
        JOINT LeftFoot
        {
          OFFSET 42.298611 1e-06 1e-06
          CHANNELS 3 Zrotation Yrotation Xrotation
          JOINT LeftToeBase
          {
            OFFSET 14.165858 1e-06 0.0
            CHANNELS 3 Zrotation Yrotation Xrotation
            JOINT LeftToeEnd
            {
              OFFSET 6.7141 -0.234461 0.0
              CHANNELS 3 Zrotation Yrotation Xrotation
            }
          }
        }
      }
    }
    JOINT RightLeg
    {
      OFFSET -8.303923 2.592729 -10.047278
      CHANNELS 3 Zrotation Yrotation Xrotation
      JOINT RightShin
      {
        OFFSET -43.369682 0.0 1e-06
        CHANNELS 3 Zrotation Yrotation Xrotation
        JOINT RightFoot
        {
          OFFSET -42.260784 4e-06 2e-06
          CHANNELS 3 Zrotation Yrotation Xrotation
          JOINT RightToeBase
          {
            OFFSET -14.222245 -2e-06 -1e-06
            CHANNELS 3 Zrotation Yrotation Xrotation
            JOINT RightToeEnd
            {
              OFFSET -6.660062 0.232574 -2e-06
              CHANNELS 3 Zrotation Yrotation Xrotation
            }
          }
        }
      }
    }
  }
}
MOTION
Frames: 4
Frame Time: 0.03333333333333333
0.0 0.0 0.0 0.0 -0.0 0.0 -12.199931 98.235916 211.611053 92.903458 3.80001 89.672836 7.656839 -0.242566 0.097419 -8.910767 -0.168144 1.455532 22.553366 -1.699138 -0.713851 34.914822 -6.420074 3.041015 -2.668389 -0.341402 -1.877995 -36.057278 0.996304 -2.322274 6e-06 -0.0 -0.0 -0.025564 -0.018896 0.141618 -0.052883 -0.063171 0.131773 -0.093946 0.016537 0.155498 -105.919991 -69.188759 125.460854 21.483027 -15.461361 13.111467 63.714046 1.109823 0.367439 6.892414 1.391791 -49.213688 17.636627 -26.322733 52.411209 -19.466665 -14.3956 29.410395 -0.0 -8.774822 -2e-06 15.788426 -17.69565 6.084022 -0.609778 -1.795654 -3.889327 -4.80709 -11.046811 -2.93785 3e-06 -20.976015 -2e-06 -5.01997 -25.033556 -4.031886 7e-06 -1e-06 1e-06 -10.634533 -5.68697 -3.565588 10.573274 -17.922949 -3.113901 1e-06 -13.821205 -1e-06 -0.501779 -31.181498 -4.027016 -11.72184 -59.092632 8.116708 -13.982716 -7.1502 -2.875043 13.772731 -8.401491 -3.218241 0.34773 -34.211555 0.771654 -0.96303 -17.73337 2.621021 -1e-06 1e-06 -1e-06 -17.346426 -20.095221 -4.201782 21.757561 -1.638373 3.866428 2e-06 -6.338823 -0.0 -1.697591 -22.591751 -6.194009 -0.0 -6e-06 -2e-06 93.65786 -82.959595 107.952927 24.062847 -24.54987 19.847204 62.273914 -0.889843 0.730937 6.599755 -3.724442 -4.696856 22.182112 -20.375895 49.933323 -16.701817 -16.74353 28.476534 -3e-06 -12.690602 0.0 16.120903 -17.540375 2.929075 -0.105919 -1.513855 -4.275882 -5.039041 -5.612871 -2.953556 5e-06 -11.020527 -1e-06 -6.111297 -15.895334 -3.840471 0.0 -1e-06 -2e-06 -10.283371 -5.680289 -4.34184 11.028296 -11.302406 -2.372632 -1.384269 -14.238583 -6.320123 -0.625436 -26.924194 -3.827602 -4.455142 -49.719818 -3.444736 -13.708524 -7.363474 -3.720941 18.14115 -14.052739 -3.242675 9e-06 -18.78727 -5e-06 -0.429712 -8.456046 2.555503 2e-06 1e-06 0.0 -15.923536 -20.094486 -5.473584 30.419218 -7.190826 1.735925 2e-06 -8.162927 -2e-06 -1.8619 -22.861473 -6.167945 -2e-06 -5e-06 -2e-06 171.783981 5.177576 -3.313911 24.720049 -0.054813 -0.116194 -82.191994 -7.539041 -2.725299 -6.083311 1.462711 2.00267 -0.999999 -0.0 -0.0 -11.501891 -11.871731 -1.453617 75.888283 -0.789736 0.607612 -53.055569 12.047116 -10.3253 -7.534421 0.727696 1.671914 -1.000002 0.0 -1e-06 
0.0 0.0 0.0 0.0 -0.0 0.0 -12.079045 98.196129 213.581512 92.25914 4.177275 90.032906 8.013439 -0.113521 -0.12866 -8.780133 -0.121226 1.07452 22.491749 -1.225422 -1.017926 34.53651 -5.81912 2.958344 -2.649328 -0.347111 -1.637801 -36.558846 0.807135 -1.997408 6e-06 0.0 -0.0 -0.029532 -0.004457 0.100487 -0.021046 -0.051619 0.095865 -0.057309 0.034202 0.110211 -105.295006 -70.184685 124.715515 21.500952 -15.120838 12.085921 63.390278 0.823454 0.061253 6.485174 1.582576 -49.005405 17.636633 -26.322729 52.411182 -19.46666 -14.395598 29.410385 -1e-06 -8.774821 -3e-06 15.800074 -17.679178 6.04691 -0.609774 -1.795653 -3.889327 -4.807086 -11.04681 -2.93785 3e-06 -20.976017 1e-06 -5.01997 -25.033558 -4.03188 6e-06 0.0 -0.0 -10.634531 -5.686968 -3.565587 10.573272 -17.922949 -3.1139 0.0 -13.821205 1e-06 -0.501779 -31.181501 -4.027014 -11.767208 -59.190884 8.208747 -13.982712 -7.150197 -2.875041 13.772729 -8.401491 -3.21824 0.347733 -34.211552 0.771655 -0.963031 -17.733368 2.621022 -2e-06 0.0 -1e-06 -17.346415 -20.095215 -4.201779 21.757557 -1.638375 3.866427 1e-06 -6.338824 -0.0 -1.697587 -22.591745 -6.194007 1e-06 -4e-06 -3e-06 91.442688 -82.257141 109.925224 23.114428 -27.144321 19.401512 62.036369 -0.687687 0.709058 5.94032 -2.537256 -6.545507 22.182114 -20.375895 49.933327 -16.701815 -16.743528 28.476536 -2e-06 -12.690601 -3e-06 16.244196 -17.64233 2.871182 -0.105919 -1.513856 -4.275881 -5.039041 -5.612873 -2.953557 4e-06 -11.020524 -3e-06 -6.111297 -15.895334 -3.840471 -0.0 0.0 1e-06 -10.283371 -5.680288 -4.341839 11.028294 -11.302406 -2.372634 -1.38427 -14.238579 -6.320121 -0.625438 -26.924194 -3.827604 -4.422626 -49.815792 -3.475595 -13.708526 -7.363475 -3.72094 18.141148 -14.052741 -3.242673 8e-06 -18.78727 -3e-06 -0.429711 -8.456047 2.555502 1e-06 -1e-06 1e-06 -15.923536 -20.094482 -5.473583 30.419214 -7.190825 1.735925 1e-06 -8.162924 -2e-06 -1.861901 -22.861469 -6.167942 1e-06 -2e-06 -2e-06 173.237625 4.634222 -2.783095 25.363888 -0.056475 -0.069922 -83.865486 -7.346225 -2.50787 -5.873713 1.440259 2.002261 -0.999999 0.0 0.0 -15.623932 -12.298256 -3.14964 76.105042 -0.534078 0.539367 -59.091061 7.245377 -10.33776 -7.584578 0.729969 1.676324 -1.000002 -0.0 0.0 
0.0 0.0 0.0 0.0 -0.0 0.0 -12.003962 98.195457 215.620392 91.544991 4.327707 90.355293 8.29832 0.067806 -0.33547 -8.648717 -0.038841 0.710995 22.370756 -0.756561 -1.406382 33.952942 -5.179695 2.786836 -2.650719 -0.350827 -1.298562 -36.964653 0.575332 -1.770741 6e-06 0.0 0.0 -0.033464 0.00838 0.067941 -0.002809 -0.037999 0.069893 -0.038514 0.047225 0.071555 -104.830055 -71.272354 124.062126 21.090958 -14.960627 11.132489 63.251781 0.639762 -0.148817 6.178218 1.518202 -48.980656 17.636627 -26.322733 52.41119 -19.466663 -14.395597 29.410389 -0.0 -8.774822 -3e-06 15.793442 -17.632938 6.025337 -0.609777 -1.795654 -3.889328 -4.807091 -11.046813 -2.937851 2e-06 -20.976021 -1e-06 -5.019972 -25.033562 -4.031883 6e-06 -1e-06 2e-06 -10.634535 -5.68697 -3.565586 10.573277 -17.922951 -3.113903 1e-06 -13.821206 -0.0 -0.501777 -31.181505 -4.027016 -11.736485 -59.23283 8.215823 -13.982719 -7.150199 -2.87504 13.772733 -8.401493 -3.218243 0.347738 -34.211559 0.77165 -0.96303 -17.733372 2.621017 -1e-06 -1e-06 -1e-06 -17.34642 -20.095219 -4.201779 21.757559 -1.638373 3.866426 3e-06 -6.338824 2e-06 -1.697593 -22.591747 -6.194006 0.0 -5e-06 -2e-06 89.297928 -81.414413 111.686478 21.973658 -29.904997 19.085144 61.68259 -0.534505 0.66525 5.53932 -1.281378 -8.812231 22.182119 -20.375898 49.933323 -16.701824 -16.743534 28.47654 -5e-06 -12.690604 -2e-06 16.321815 -17.753796 2.845076 -0.105918 -1.513857 -4.27588 -5.03904 -5.612871 -2.953556 5e-06 -11.020525 -3e-06 -6.111296 -15.895332 -3.84047 0.0 -0.0 1e-06 -10.283373 -5.680288 -4.341838 11.028298 -11.302406 -2.372638 -1.384267 -14.238581 -6.320119 -0.625435 -26.924191 -3.827597 -4.458574 -49.796257 -3.487391 -13.708527 -7.363475 -3.720937 18.141153 -14.052741 -3.242678 9e-06 -18.787271 -1e-06 -0.42971 -8.456045 2.555501 1e-06 -1e-06 1e-06 -15.923532 -20.094482 -5.473587 30.41921 -7.190831 1.735927 2e-06 -8.162922 -3e-06 -1.8619 -22.861467 -6.167941 1e-06 -3e-06 -0.0 174.568192 3.941684 -2.384213 25.840969 -0.065651 -0.006922 -85.330978 -7.088549 -2.330665 -5.699027 1.408372 2.003121 -0.999999 0.0 0.0 -19.354729 -12.440438 -4.889728 72.900131 -0.300171 0.436803 -63.443352 3.034657 -10.355394 -7.879415 0.709817 1.654147 -1.000003 -0.0 -1e-06 
0.0 0.0 0.0 0.0 -0.0 0.0 -11.969987 98.212997 217.689819 90.866661 4.219981 90.56974 8.456231 0.24037 -0.476145 -8.527564 0.033494 0.334655 22.236355 -0.293425 -1.83929 33.254089 -4.654771 2.599678 -2.677296 -0.32072 -1.023656 -37.23772 0.316484 -1.576803 5e-06 0.0 -0.0 -0.039481 0.02014 0.035589 -0.006857 -0.03203 0.043522 -0.044773 0.065813 0.033384 -104.511772 -72.35067 123.470955 20.332464 -14.971536 10.346122 63.271786 0.546503 -0.321327 5.910321 1.299823 -48.831768 17.636629 -26.322737 52.411201 -19.466658 -14.395597 29.410389 -0.0 -8.774821 -2e-06 15.792809 -17.595425 6.008029 -0.609777 -1.795654 -3.889327 -4.807086 -11.046809 -2.937851 4e-06 -20.976015 2e-06 -5.019971 -25.033548 -4.031881 6e-06 0.0 2e-06 -10.634531 -5.686969 -3.565587 10.573272 -17.922947 -3.113899 1e-06 -13.821205 1e-06 -0.50178 -31.181498 -4.027011 -11.710923 -59.255116 8.168141 -13.982708 -7.150196 -2.875044 13.772726 -8.401491 -3.218241 0.347731 -34.211544 0.771657 -0.96303 -17.733366 2.621021 -1e-06 0.0 -1e-06 -17.346413 -20.095213 -4.201782 21.757553 -1.638375 3.866428 2e-06 -6.338823 1e-06 -1.697589 -22.591742 -6.194004 0.0 -5e-06 -1e-06 86.955704 -80.514999 113.621407 20.737593 -32.651802 18.954092 61.099293 -0.340287 0.657291 5.424358 -0.232506 -10.894316 22.182117 -20.375895 49.933319 -16.701811 -16.74353 28.47653 -3e-06 -12.690601 -1e-06 16.326111 -17.843576 2.847232 -0.105918 -1.513855 -4.275881 -5.039042 -5.612872 -2.953557 4e-06 -11.020523 -0.0 -6.111296 -15.89533 -3.840473 -0.0 1e-06 0.0 -10.283369 -5.680287 -4.341837 11.028294 -11.302402 -2.372632 -1.384269 -14.238578 -6.320117 -0.625437 -26.924185 -3.8276 -4.579497 -49.697945 -3.47157 -13.70852 -7.363473 -3.720941 18.141148 -14.052738 -3.242676 7e-06 -18.787266 -3e-06 -0.429712 -8.456043 2.555506 2e-06 -1e-06 -0.0 -15.923532 -20.094481 -5.473586 30.41921 -7.190827 1.735926 2e-06 -8.162926 -0.0 -1.861901 -22.861467 -6.167942 -1e-06 -2e-06 0.0 175.672516 3.220687 -2.155605 26.243477 -0.072013 0.065367 -86.553802 -6.744544 -2.183422 -5.54671 1.380207 2.016093 -0.999998 0.0 -0.0 -22.429197 -12.281023 -6.63195 66.362602 -0.173764 0.326452 -66.437309 0.182858 -10.803288 -8.356494 0.69417 1.623332 -1.000006 1e-06 0.0 
